<?xml version="1.0" encoding="UTF-8"?>
<svg width="50px" height="50px" viewBox="0 0 50 50" version="1.1" xmlns="http://www.w3.org/2000/svg" xmlns:xlink="http://www.w3.org/1999/xlink">
    <!-- Generator: Sketch 51.2 (57519) - http://www.bohemiancoding.com/sketch -->
    <title>Group</title>
    <desc>Created with Sketch.</desc>
    <defs></defs>
    <g id="Page-1" stroke="none" stroke-width="1" fill="none" fill-rule="evenodd">
        <g id="Logo-simon-rond" transform="translate(-35.000000, -36.000000)" fill="#1A171B">
            <g id="Group" transform="translate(35.000000, 36.000000)">
                <polygon id="Fill-1" points="15.2134908 25.1727034 25.1927559 4.99947507 35.1716273 25.244357 25.336063 34.7568241"></polygon>
                <polygon id="Fill-2" points="35.09979 26.177664 31.7016273 40.5121785 25.5694751 37.8797638 25.578399 35.34"></polygon>
                <polygon id="Fill-3" points="2.19534121 30.1741339 3.2242126 25.8545801 4.92486877 27.6768898"></polygon>
                <polygon id="Fill-4" points="47.7830577 25.723084 32.3716404 40.1293832 34.6690157 30.5569423"></polygon>
                <polygon id="Fill-5" points="24.9681496 35.3131365 24.9681496 37.8976509 18.6836352 40.6078871 15.4647375 26.357231"></polygon>
                <polygon id="Fill-6" points="5.61721785 25.5795407 15.7519948 30.5927953 17.9533071 40.1175984 3.79858268 25.6274409"></polygon>
                <path d="M25.0007087,0.551863517 C11.5442782,0.551863517 0.59664042,11.4995013 0.59664042,24.9559318 C0.59664042,38.4128871 11.5442782,49.3607874 25.0007087,49.3607874 C38.4571391,49.3607874 49.4047769,38.4128871 49.4047769,24.9559318 C49.4047769,11.4995013 38.4571391,0.551863517 25.0007087,0.551863517 M25.0007087,49.8492388 C11.2748556,49.8492388 0.108057743,38.6820472 0.108057743,24.9559318 C0.108057743,11.23021 11.2748556,0.0632808399 25.0007087,0.0632808399 C38.7266929,0.0632808399 49.8933596,11.23021 49.8933596,24.9559318 C49.8933596,38.6820472 38.7266929,49.8492388 25.0007087,49.8492388" id="Fill-7"></path>
            </g>
        </g>
    </g>
</svg>