<?xml version="1.0" encoding="UTF-8"?>
<svg width="454px" height="454px" viewBox="0 0 454 454" version="1.1" xmlns="http://www.w3.org/2000/svg" xmlns:xlink="http://www.w3.org/1999/xlink">
    <!-- Generator: Sketch 51.2 (57519) - http://www.bohemiancoding.com/sketch -->
    <title>Logo-simon-rond</title>
    <desc>Created with Sketch.</desc>
    <defs></defs>
    <g id="Logo-simon-rond" stroke="none" stroke-width="1" fill="none" fill-rule="evenodd">
        <polygon id="Fill-1" fill="#FFFFFF" points="150.9268 227.816 226.9688 74.096 303.0078 228.362 228.0608 300.847"></polygon>
        <polygon id="Fill-2" fill="#FFFFFF" points="302.4604 235.4738 276.5664 344.7028 229.8394 324.6438 229.9074 305.2908"></polygon>
        <polygon id="Fill-3" fill="#FFFFFF" points="51.7285 265.9269 59.5685 233.0119 72.5275 246.8979"></polygon>
        <polygon id="Fill-4" fill="#FFFFFF" points="399.1069 232.0099 281.6719 341.7859 299.1779 268.8439"></polygon>
        <polygon id="Fill-5" fill="#FFFFFF" points="225.2573 305.0861 225.2573 324.7801 177.3693 345.4321 152.8413 236.8421"></polygon>
        <polygon id="Fill-6" fill="#FFFFFF" points="77.8032 230.9161 155.0302 269.1171 171.8042 341.6961 63.9452 231.2811"></polygon>
        <path d="M225.5054,40.2052 C122.9674,40.2052 39.5464,123.6262 39.5464,226.1642 C39.5464,328.7062 122.9674,412.1292 225.5054,412.1292 C328.0434,412.1292 411.4644,328.7062 411.4644,226.1642 C411.4644,123.6262 328.0434,40.2052 225.5054,40.2052 M225.5054,415.8512 C120.9144,415.8512 35.8234,330.7572 35.8234,226.1642 C35.8234,121.5742 120.9144,36.4822 225.5054,36.4822 C330.0974,36.4822 415.1874,121.5742 415.1874,226.1642 C415.1874,330.7572 330.0974,415.8512 225.5054,415.8512" id="Fill-7" fill="#FFFFFF"></path>
    </g>
</svg>